<?xml version="1.0" encoding="utf-8"?>
<!-- Svg Vector Icons : http://www.onlinewebfonts.com/icon -->
<!DOCTYPE svg PUBLIC "-//W3C//DTD SVG 1.1//EN" "http://www.w3.org/Graphics/SVG/1.1/DTD/svg11.dtd">
<svg version="1.1" xmlns="http://www.w3.org/2000/svg" xmlns:xlink="http://www.w3.org/1999/xlink" x="0px" y="0px" viewBox="0 0 1000 1000" enable-background="new 0 0 1000 1000" xml:space="preserve">
<metadata> Svg Vector Icons : http://www.onlinewebfonts.com/icon </metadata>
<g><path d="M901.1,464.6c-248.2-241.1-563-258-804.3,1.7L10,381.9c267.5-326.6,724.7-299,980-0.4L901.1,464.6z"/><path d="M414.1,765.7c0-48.2,38.2-87.2,85.3-87.2c47.1,0,85.3,39,85.3,87.2c0,48.1-38.2,87.1-85.3,87.1C452.3,852.8,414.1,813.8,414.1,765.7L414.1,765.7z"/><path d="M807.2,560.7l-88.5,85.7C573.3,505.2,424.4,495,283.1,647l-83.7-81.2C388.8,355.3,610.9,357.2,807.2,560.7L807.2,560.7z"/></g>
</svg>